# xmcd
#
# Track frame offsets:
#	150
#	13122
#	28347
#
# Disc length: 583 seconds
#
# Revision: 0
# Processed by: cddbd v1.5.2PL0 Copyright (c) Steve Scherf et al.
# Submitted via: audiograbber 1.83.01
#
DISCID=1f024503
DTITLE=Winchester - Everybody´s Doin´ It (Line Dance) [CDM)
DYEAR=2001
DGENRE=Country
TTITLE0=Everybody´s Doin´ It (Line Dance)
TTITLE1=Line Dance Trance
TTITLE2=Dancin'
EXTD=TR.
EXTT0=
EXTT1=
EXTT2=
PLAYORDER=
